<svg width="15" height="15" viewBox="0 0 15 15" fill="none" xmlns="http://www.w3.org/2000/svg">
<path d="M10.38 0.5C14.2 0.5 14.5 0.8 14.5 4.62V10.38C14.5 14.2 14.2 14.5 10.38 14.5H4.62C0.8 14.5 0.5 14.2 0.5 10.38V4.62C0.5 0.8 0.8 0.5 4.62 0.5H10.38ZM5.06 11.35V5.655H3.29V11.35H5.06ZM4.175 4.84C4.3133 4.84417 4.45102 4.82051 4.58 4.77043C4.70898 4.72036 4.82658 4.64488 4.92583 4.54848C5.02508 4.45209 5.10396 4.33673 5.15778 4.20927C5.21159 4.0818 5.23925 3.94483 5.23912 3.80647C5.23899 3.66811 5.21106 3.53119 5.157 3.40383C5.10293 3.27647 5.02383 3.16127 4.9244 3.06506C4.82496 2.96886 4.70721 2.89361 4.57813 2.84378C4.44906 2.79395 4.31129 2.77056 4.173 2.775C4.03734 2.77513 3.90304 2.80198 3.77776 2.85402C3.65249 2.90605 3.53868 2.98225 3.44285 3.07827C3.24931 3.27218 3.14073 3.53503 3.141 3.809C3.14126 4.08297 3.25035 4.34561 3.44427 4.53915C3.63818 4.73269 3.90103 4.84027 4.175 4.84ZM11.7 11.35V8.226C11.7 6.693 11.369 5.513 9.576 5.513C8.716 5.513 8.138 5.985 7.902 6.433H7.878V5.655H6.18V11.35H7.949V8.533C7.949 7.79 8.091 7.07 9.012 7.07C9.919 7.07 9.932 7.92 9.932 8.58V11.35H11.7Z" fill="white"/>
</svg>
