<svg width="390" height="1205" viewBox="0 0 390 1205" fill="none" xmlns="http://www.w3.org/2000/svg">
<g clip-path="url(#clip0_1796_1608)">
<rect width="390" height="1205" fill="white"/>
<rect width="390" height="1205" fill="#101828"/>
<rect width="390" height="1205" fill="black"/>
<rect width="390" height="1205" fill="url(#paint0_radial_1796_1608)" fill-opacity="0.12"/>
<rect width="390" height="1205" fill="url(#paint1_radial_1796_1608)" fill-opacity="0.08"/>
<rect width="390" height="1205" fill="url(#paint2_radial_1796_1608)"/>
<path d="M224.032 787.077C224.431 786.072 223.574 785.101 222.688 785.553C222.496 785.654 222.348 785.821 222.259 786.039C221.861 787.044 222.717 788.015 223.604 787.563C223.796 787.462 223.944 787.295 224.032 787.077Z" fill="white" fill-opacity="0.2"/>
<path d="M83.8762 762.461C84.274 761.456 83.4195 760.485 82.5355 760.937C82.3439 761.037 82.1966 761.205 82.1082 761.423C81.6957 762.427 82.5649 763.399 83.4489 762.946C83.6405 762.846 83.7878 762.679 83.8762 762.461Z" fill="white" fill-opacity="0.2"/>
<path d="M358.259 934.762C358.657 933.76 357.802 932.791 356.918 933.242C356.727 933.342 356.579 933.509 356.491 933.726C356.078 934.728 356.948 935.714 357.832 935.246C358.023 935.146 358.171 934.979 358.259 934.762Z" fill="white" fill-opacity="0.2"/>
<path d="M224.032 865.398C224.431 864.394 223.574 863.422 222.688 863.875C222.496 863.975 222.348 864.142 222.259 864.36C221.861 865.365 222.717 866.336 223.604 865.884C223.796 865.784 223.944 865.616 224.032 865.398Z" fill="white" fill-opacity="0.4"/>
<path d="M241.793 44.1517C242.205 43.1469 241.336 42.1756 240.452 42.6277C240.261 42.7282 240.113 42.8957 240.025 43.1134C239.627 44.1182 240.482 45.0895 241.366 44.6373C241.557 44.5369 241.704 44.3694 241.793 44.1517Z" fill="white" fill-opacity="0.2"/>
<path d="M60.345 71.7438C60.7428 70.7416 59.8882 69.7729 59.0042 70.2239C58.8127 70.3241 58.6654 70.4911 58.577 70.7082C58.1644 71.7103 59.0337 72.6958 59.9177 72.2281C60.1092 72.1279 60.2566 71.9609 60.345 71.7438Z" fill="white" fill-opacity="0.2"/>
<path d="M287.4 836.305C287.001 835.3 287.858 834.329 288.744 834.781C288.936 834.882 289.084 835.049 289.173 835.267C289.572 836.272 288.715 837.243 287.829 836.791C287.636 836.69 287.489 836.523 287.4 836.305Z" fill="white" fill-opacity="0.2"/>
<path d="M101.845 840.782C101.447 839.777 102.303 838.806 103.19 839.258C103.382 839.359 103.529 839.526 103.618 839.744C104.017 840.749 103.16 841.72 102.274 841.268C102.082 841.167 101.934 841 101.845 840.782Z" fill="white" fill-opacity="0.2"/>
<path d="M356.486 872.107C356.088 871.105 356.942 870.136 357.826 870.587C358.018 870.688 358.165 870.855 358.254 871.072C358.666 872.074 357.797 873.059 356.913 872.592C356.721 872.491 356.574 872.324 356.486 872.107Z" fill="white" fill-opacity="0.2"/>
<path d="M26.197 156.672C25.7981 155.667 26.6549 154.696 27.5413 155.148C27.7333 155.248 27.8811 155.416 27.9697 155.634C28.3686 156.638 27.5117 157.61 26.6254 157.158C26.4333 157.057 26.2856 156.89 26.197 156.672Z" fill="white" fill-opacity="0.2"/>
<path d="M38.6735 865.398C38.2747 864.394 39.1315 863.422 40.0178 863.875C40.2099 863.975 40.3576 864.142 40.4463 864.36C40.8451 865.365 39.9883 866.336 39.1019 865.884C38.9099 865.784 38.7622 865.616 38.6735 865.398Z" fill="white" fill-opacity="0.2"/>
<path d="M172.908 930.289C172.509 929.284 173.366 928.313 174.252 928.765C174.444 928.866 174.592 929.033 174.681 929.251C175.079 930.256 174.223 931.227 173.336 930.775C173.144 930.674 172.997 930.507 172.908 930.289Z" fill="white" fill-opacity="0.4"/>
<path d="M16.9623 954.905C16.5645 953.901 17.4191 952.929 18.3031 953.382C18.4946 953.482 18.6419 953.649 18.7303 953.867C19.1429 954.872 18.2736 955.843 17.3896 955.391C17.198 955.291 17.0507 955.123 16.9623 954.905Z" fill="white" fill-opacity="0.2"/>
<path d="M352.54 335.57C352.938 334.566 352.084 333.594 351.2 334.047C351.008 334.147 350.861 334.314 350.772 334.532C350.36 335.537 351.229 336.508 352.113 336.056C352.305 335.956 352.452 335.788 352.54 335.57Z" fill="white" fill-opacity="0.2"/>
<path d="M8.86314 534.214C9.27567 533.21 8.40641 532.238 7.52241 532.691C7.33088 532.791 7.18353 532.959 7.09513 533.176C6.69734 534.181 7.55187 535.152 8.43586 534.7C8.6274 534.6 8.77474 534.432 8.86314 534.214Z" fill="white" fill-opacity="0.2"/>
<path d="M343.082 695.33C343.494 694.325 342.625 693.353 341.741 693.806C341.55 693.906 341.402 694.074 341.314 694.291C340.916 695.296 341.771 696.267 342.655 695.815C342.846 695.715 342.993 695.547 343.082 695.33Z" fill="white" fill-opacity="0.2"/>
<path d="M266.15 356.171C266.547 355.168 265.693 354.2 264.809 354.651C264.617 354.751 264.47 354.918 264.382 355.135C263.969 356.137 264.838 357.123 265.722 356.655C265.914 356.555 266.061 356.388 266.15 356.171Z" fill="white" fill-opacity="0.2"/>
<path d="M130.095 763.555C130.493 762.55 129.638 761.578 128.754 762.031C128.563 762.131 128.415 762.299 128.327 762.516C127.914 763.521 128.784 764.492 129.668 764.04C129.859 763.94 130.007 763.772 130.095 763.555Z" fill="white" fill-opacity="0.2"/>
<path d="M33.9441 371.235C33.5316 370.23 34.4009 369.259 35.2849 369.711C35.4764 369.812 35.6238 369.979 35.7122 370.197C36.11 371.202 35.2554 372.173 34.3714 371.721C34.1799 371.62 34.0325 371.453 33.9441 371.235Z" fill="white" fill-opacity="0.4"/>
<path d="M189.327 659.525C188.914 658.523 189.784 657.537 190.668 658.005C190.859 658.105 191.007 658.272 191.095 658.489C191.493 659.491 190.638 660.46 189.754 660.009C189.563 659.909 189.415 659.742 189.327 659.525Z" fill="white" fill-opacity="0.2"/>
<path d="M54.3845 430.174C53.9856 429.17 54.8424 428.198 55.7288 428.65C55.9208 428.751 56.0686 428.918 56.1572 429.136C56.5561 430.141 55.6993 431.112 54.8129 430.66C54.6208 430.56 54.4731 430.392 54.3845 430.174Z" fill="white" fill-opacity="0.4"/>
<path d="M65.7879 509.284C65.3754 508.279 66.2446 507.308 67.1286 507.76C67.3202 507.86 67.4675 508.028 67.5559 508.246C67.9537 509.25 67.0992 510.222 66.2152 509.77C66.0236 509.669 65.8763 509.502 65.7879 509.284Z" fill="white" fill-opacity="0.2"/>
<path d="M218.455 739.014C218.056 738.009 218.913 737.038 219.799 737.49C219.991 737.59 220.139 737.758 220.228 737.975C220.626 738.98 219.77 739.951 218.883 739.499C218.691 739.399 218.543 739.231 218.455 739.014Z" fill="white" fill-opacity="0.2"/>
<path d="M372.079 95.6204C372.477 94.6156 371.623 93.6443 370.739 94.0964C370.547 94.1969 370.4 94.3644 370.311 94.5821C369.899 95.5869 370.768 96.5582 371.652 96.106C371.844 96.0056 371.991 95.8381 372.079 95.6204Z" fill="white" fill-opacity="0.2"/>
<path d="M312.861 294.778C313.258 293.773 312.404 292.802 311.52 293.254C311.328 293.355 311.181 293.522 311.093 293.74C310.68 294.745 311.549 295.716 312.433 295.264C312.625 295.163 312.772 294.996 312.861 294.778Z" fill="white" fill-opacity="0.4"/>
<path d="M125.533 189.551C125.135 188.546 125.989 187.575 126.873 188.027C127.065 188.128 127.212 188.295 127.301 188.513C127.713 189.518 126.844 190.489 125.96 190.037C125.768 189.936 125.621 189.769 125.533 189.551Z" fill="white" fill-opacity="0.2"/>
<path d="M286.463 198.102C286.064 197.097 286.921 196.126 287.807 196.578C287.999 196.679 288.147 196.846 288.235 197.064C288.634 198.069 287.777 199.04 286.891 198.588C286.699 198.487 286.551 198.32 286.463 198.102Z" fill="white" fill-opacity="0.2"/>
<path d="M384.124 261.213C383.711 260.208 384.581 259.236 385.465 259.689C385.656 259.789 385.803 259.957 385.892 260.174C386.29 261.179 385.435 262.15 384.551 261.698C384.36 261.598 384.212 261.43 384.124 261.213Z" fill="white" fill-opacity="0.2"/>
<path d="M192.647 250.022C192.235 249.018 193.104 248.046 193.988 248.499C194.18 248.599 194.327 248.766 194.415 248.984C194.813 249.989 193.959 250.96 193.075 250.508C192.883 250.408 192.736 250.24 192.647 250.022Z" fill="white" fill-opacity="0.4"/>
<path d="M376.233 178.419C375.821 177.414 376.69 176.443 377.574 176.895C377.766 176.995 377.913 177.163 378.001 177.38C378.399 178.385 377.545 179.357 376.66 178.904C376.469 178.804 376.322 178.636 376.233 178.419Z" fill="white" fill-opacity="0.2"/>
<path d="M241.072 130.072C240.673 129.067 241.53 128.096 242.416 128.548C242.608 128.648 242.756 128.816 242.845 129.033C243.244 130.038 242.387 131.01 241.5 130.557C241.308 130.457 241.161 130.289 241.072 130.072Z" fill="white" fill-opacity="0.2"/>
</g>
<defs>
<radialGradient id="paint0_radial_1796_1608" cx="0" cy="0" r="1" gradientUnits="userSpaceOnUse" gradientTransform="translate(195) rotate(90) scale(1205 390)">
<stop stop-color="#7939FF"/>
<stop offset="1" stop-color="#0C0222" stop-opacity="0"/>
</radialGradient>
<radialGradient id="paint1_radial_1796_1608" cx="0" cy="0" r="1" gradientUnits="userSpaceOnUse" gradientTransform="translate(195 1205) rotate(-90) scale(1205 390)">
<stop stop-color="#3994FF"/>
<stop offset="1" stop-color="#0C0222" stop-opacity="0"/>
</radialGradient>
<radialGradient id="paint2_radial_1796_1608" cx="0" cy="0" r="1" gradientUnits="userSpaceOnUse" gradientTransform="translate(195 602.5) rotate(72.0658) scale(633.27 371.05)">
<stop stop-color="#713DFF" stop-opacity="0.06"/>
<stop offset="1" stop-color="#713DFF" stop-opacity="0"/>
</radialGradient>
<clipPath id="clip0_1796_1608">
<rect width="390" height="1205" fill="white"/>
</clipPath>
</defs>
</svg>
